<svg width="24" height="28" viewBox="0 0 24 28" fill="none" xmlns="http://www.w3.org/2000/svg">
<path d="M12 14C13.8186 14 15.5628 13.2625 16.8487 11.9497C18.1347 10.637 18.8571 8.85652 18.8571 7C18.8571 5.14348 18.1347 3.36301 16.8487 2.05025C15.5628 0.737498 13.8186 0 12 0C10.1814 0 8.43723 0.737498 7.15127 2.05025C5.8653 3.36301 5.14286 5.14348 5.14286 7C5.14286 8.85652 5.8653 10.637 7.15127 11.9497C8.43723 13.2625 10.1814 14 12 14ZM9.55179 16.625C4.275 16.625 0 20.9891 0 26.3758C0 27.2727 0.7125 28 1.59107 28H22.4089C23.2875 28 24 27.2727 24 26.3758C24 20.9891 19.725 16.625 14.4482 16.625H9.55179Z" fill="#008B8F"/>
</svg>
