<svg width="35" height="35" viewBox="0 0 35 35" fill="none" xmlns="http://www.w3.org/2000/svg">
<path d="M13.125 1.64062C13.125 0.731445 13.8564 0 14.7656 0H20.2344C21.1436 0 21.875 0.731445 21.875 1.64062C21.875 2.5498 21.1436 3.28125 20.2344 3.28125H19.1406V5.57812C21.2393 5.86523 23.1602 6.69238 24.7666 7.90918L26.3936 6.28906L25.6211 5.50977C24.9785 4.86719 24.9785 3.82812 25.6211 3.19238C26.2637 2.55664 27.3027 2.5498 27.9385 3.19238L31.8076 7.06152C32.4502 7.7041 32.4502 8.74316 31.8076 9.37891C31.165 10.0146 30.126 10.0215 29.4902 9.37891L28.7109 8.60645L27.084 10.2334C28.3076 11.8398 29.1279 13.7676 29.415 15.8594H31.7188V14.7656C31.7188 13.8564 32.4502 13.125 33.3594 13.125C34.2686 13.125 35 13.8564 35 14.7656V20.2344C35 21.1436 34.2686 21.875 33.3594 21.875C32.4502 21.875 31.7188 21.1436 31.7188 20.2344V19.1406H29.4219C29.1348 21.2393 28.3076 23.1602 27.0908 24.7666L28.7109 26.3936L29.4834 25.6211C30.126 24.9785 31.165 24.9785 31.8008 25.6211C32.4365 26.2637 32.4434 27.3027 31.8008 27.9385L27.9316 31.8076C27.2891 32.4502 26.25 32.4502 25.6143 31.8076C24.9785 31.165 24.9717 30.126 25.6143 29.4902L26.3936 28.7109L24.7666 27.084C23.1602 28.3076 21.2324 29.1279 19.1406 29.415V31.7188H20.2344C21.1436 31.7188 21.875 32.4502 21.875 33.3594C21.875 34.2686 21.1436 35 20.2344 35H14.7656C13.8564 35 13.125 34.2686 13.125 33.3594C13.125 32.4502 13.8564 31.7188 14.7656 31.7188H15.8594V29.4219C13.7607 29.1348 11.8398 28.3076 10.2334 27.0908L8.60645 28.7109L9.37891 29.4834C10.0215 30.126 10.0215 31.165 9.37891 31.8008C8.73633 32.4365 7.69727 32.4434 7.06152 31.8008L3.19238 27.9385C2.5498 27.2959 2.5498 26.2568 3.19238 25.6211C3.83496 24.9853 4.87402 24.9785 5.50977 25.6211L6.28906 26.3936L7.91602 24.7666C6.69238 23.1602 5.86523 21.2393 5.57812 19.1406H3.28125V20.2344C3.28125 21.1436 2.5498 21.875 1.64062 21.875C0.731445 21.875 0 21.1436 0 20.2344V14.7656C0 13.8564 0.731445 13.125 1.64062 13.125C2.5498 13.125 3.28125 13.8564 3.28125 14.7656V15.8594H5.57812C5.86523 13.7607 6.69238 11.8398 7.90918 10.2334L6.28906 8.60645L5.50977 9.37891C4.86719 10.0215 3.82812 10.0215 3.19238 9.37891C2.55664 8.73633 2.5498 7.69727 3.19238 7.06152L7.06152 3.19238C7.7041 2.5498 8.74316 2.5498 9.37891 3.19238C10.0146 3.83496 10.0215 4.87402 9.37891 5.50977L8.60645 6.28906L10.2334 7.91602C11.8398 6.69238 13.7676 5.87207 15.8594 5.58496V3.28125H14.7656C13.8564 3.28125 13.125 2.5498 13.125 1.64062ZM16.4062 15.3125C16.4062 14.4423 16.0605 13.6077 15.4452 12.9923C14.8298 12.377 13.9952 12.0312 13.125 12.0312C12.2548 12.0312 11.4202 12.377 10.8048 12.9923C10.1895 13.6077 9.84375 14.4423 9.84375 15.3125C9.84375 16.1827 10.1895 17.0173 10.8048 17.6327C11.4202 18.248 12.2548 18.5938 13.125 18.5938C13.9952 18.5938 14.8298 18.248 15.4452 17.6327C16.0605 17.0173 16.4062 16.1827 16.4062 15.3125ZM20.7812 22.4219C21.2164 22.4219 21.6337 22.249 21.9413 21.9413C22.249 21.6337 22.4219 21.2164 22.4219 20.7812C22.4219 20.3461 22.249 19.9288 21.9413 19.6212C21.6337 19.3135 21.2164 19.1406 20.7812 19.1406C20.3461 19.1406 19.9288 19.3135 19.6212 19.6212C19.3135 19.9288 19.1406 20.3461 19.1406 20.7812C19.1406 21.2164 19.3135 21.6337 19.6212 21.9413C19.9288 22.249 20.3461 22.4219 20.7812 22.4219Z" fill="#008B8F"/>
</svg>
